#N canvas 0 23 1680 925 10;
#X floatatom 530 383 4 0 0 0 - c.time -, f 4;
#X floatatom 1104 378 5 0 0 0 - e.time -, f 5;
#X obj 835 313 tgl 100 0 empty no empty 17 7 0 10 -261234 -1 -1 0 1
;
#N canvas 0 23 1680 925 settings 0;
#N canvas 1028 38 636 589 day/night 0;
#X floatatom 123 203 5 0 0 0 - - -, f 5;
#X obj 123 222 select 24;
#X msg 88 202 0;
#X obj 152 179 + 1;
#X obj 123 179 f;
#X text 192 28 Day/Night Cycle;
#X floatatom 368 205 5 0 0 0 - - -, f 5;
#X obj 368 224 select 24;
#X msg 335 204 0;
#X obj 397 181 + 1;
#X obj 368 181 f;
#X obj 272 91 r time;
#X msg 323 108 6;
#X obj 272 111 bng 15 250 50 0 empty empty empty 17 7 0 10 -262144
-1 -1;
#X obj 123 248 s c.time;
#X obj 368 249 s e.time;
#X obj 123 302 f;
#X obj 154 302 + 1;
#X msg 217 108 0;
#X obj 123 155 metro 2000;
#X obj 368 157 metro 2000;
#X floatatom 123 336 5 0 0 0 - - -, f 5;
#X obj 120 417 -;
#X floatatom 120 447 5 0 0 0 - - -, f 5;
#X obj 120 472 s day;
#X obj 91 402 bng 15 250 50 0 empty empty empty 17 7 0 10 -262144 -1
-1;
#X obj 120 388 352;
#X connect 0 0 1 0;
#X connect 0 0 14 0;
#X connect 1 0 2 0;
#X connect 1 0 16 0;
#X connect 2 0 4 0;
#X connect 3 0 4 1;
#X connect 4 0 3 0;
#X connect 4 0 0 0;
#X connect 6 0 7 0;
#X connect 6 0 15 0;
#X connect 7 0 8 0;
#X connect 8 0 10 0;
#X connect 9 0 10 1;
#X connect 10 0 9 0;
#X connect 10 0 6 0;
#X connect 11 0 13 0;
#X connect 11 0 12 0;
#X connect 11 0 18 0;
#X connect 12 0 10 0;
#X connect 13 0 19 0;
#X connect 13 0 20 0;
#X connect 16 0 17 0;
#X connect 16 0 21 0;
#X connect 17 0 16 1;
#X connect 18 0 4 0;
#X connect 19 0 4 0;
#X connect 20 0 10 0;
#X connect 21 0 22 1;
#X connect 21 0 25 0;
#X connect 22 0 23 0;
#X connect 23 0 24 0;
#X connect 25 0 22 0;
#X connect 25 0 26 0;
#X connect 26 0 22 0;
#X restore 33 33 pd day/night;
#N canvas 0 22 332 254 sleep 0;
#N canvas 33 172 528 450 c.sleep 0;
#X obj 91 278 ==;
#X floatatom 93 218 5 0 0 0 - - -, f 5;
#X obj 91 301 tgl 15 0 empty empty empty 17 7 0 10 -262144 -1 -1 0
1;
#X obj 52 331 spigot;
#X obj 205 348 tgl 15 0 empty empty empty 17 7 0 10 -262144 -1 -1 1
1;
#X obj 91 257 bng 15 250 50 0 empty empty empty 17 7 0 10 -262144 -1
-1;
#X obj 343 183 random 4;
#X obj 342 270 ==;
#X obj 342 293 tgl 15 0 empty empty empty 17 7 0 10 -262144 -1 -1 0
1;
#X obj 303 331 spigot;
#X obj 342 249 bng 15 250 50 0 empty empty empty 17 7 0 10 -262144
-1 -1;
#X msg 343 157 seed 2;
#X floatatom 257 65 5 0 0 0 - - -, f 5;
#X floatatom 409 243 5 0 0 0 - - -, f 5;
#X floatatom 343 205 5 0 0 0 - - -, f 5;
#X obj 205 374 outlet;
#X msg 303 305 1;
#X msg 52 304 0;
#X obj 93 236 + 1;
#X obj 194 65 r c.time;
#X obj 341 364 outlet;
#X obj 194 92 select 1 7;
#X obj 343 226 + 8;
#X obj 427 156 select 17;
#X msg 427 188 5;
#X obj 168 181 select 6;
#X msg 168 202 6;
#X obj 93 194 random 3;
#X connect 0 0 2 0;
#X connect 1 0 18 0;
#X connect 2 0 3 1;
#X connect 3 0 4 0;
#X connect 4 0 15 0;
#X connect 5 0 0 0;
#X connect 5 0 0 1;
#X connect 6 0 14 0;
#X connect 7 0 8 0;
#X connect 8 0 9 1;
#X connect 9 0 4 0;
#X connect 10 0 7 0;
#X connect 10 0 7 1;
#X connect 10 0 20 0;
#X connect 11 0 6 0;
#X connect 14 0 22 0;
#X connect 16 0 9 0;
#X connect 17 0 3 0;
#X connect 18 0 0 0;
#X connect 19 0 0 1;
#X connect 19 0 5 0;
#X connect 19 0 17 0;
#X connect 19 0 10 0;
#X connect 19 0 16 0;
#X connect 19 0 7 1;
#X connect 19 0 12 0;
#X connect 19 0 21 0;
#X connect 19 0 23 0;
#X connect 19 0 25 0;
#X connect 21 0 27 0;
#X connect 21 1 6 0;
#X connect 22 0 7 0;
#X connect 22 0 13 0;
#X connect 23 0 24 0;
#X connect 24 0 14 0;
#X connect 25 0 26 0;
#X connect 26 0 1 0;
#X connect 27 0 1 0;
#X restore 68 49 pd c.sleep;
#N canvas 1120 199 517 441 e.sleep 0;
#X obj 91 277 ==;
#X floatatom 93 217 5 0 0 0 - - -, f 5;
#X obj 91 300 tgl 15 0 empty empty empty 17 7 0 10 -262144 -1 -1 0
1;
#X obj 52 330 spigot;
#X obj 205 347 tgl 15 0 empty empty empty 17 7 0 10 -262144 -1 -1 1
1;
#X obj 91 256 bng 15 250 50 0 empty empty empty 17 7 0 10 -262144 -1
-1;
#X obj 343 183 random 4;
#X obj 342 269 ==;
#X obj 342 292 tgl 15 0 empty empty empty 17 7 0 10 -262144 -1 -1 0
1;
#X obj 303 330 spigot;
#X obj 342 248 bng 15 250 50 0 empty empty empty 17 7 0 10 -262144
-1 -1;
#X msg 343 157 seed 2;
#X floatatom 257 64 5 0 0 0 - - -, f 5;
#X floatatom 404 253 5 0 0 0 - - -, f 5;
#X floatatom 343 205 5 0 0 0 - - -, f 5;
#X obj 194 64 r e.time;
#X obj 205 373 outlet;
#X msg 303 284 1;
#X msg 52 303 0;
#X obj 343 225 + 8;
#X obj 93 235 + 1;
#X obj 194 91 select 1 7;
#X obj 418 156 select 17;
#X msg 418 188 5;
#X obj 93 192 random 3;
#X obj 168 179 select 6;
#X msg 168 201 6;
#X connect 0 0 2 0;
#X connect 1 0 20 0;
#X connect 2 0 3 1;
#X connect 3 0 4 0;
#X connect 4 0 16 0;
#X connect 5 0 0 0;
#X connect 5 0 0 1;
#X connect 6 0 14 0;
#X connect 7 0 8 0;
#X connect 8 0 9 1;
#X connect 9 0 4 0;
#X connect 10 0 7 0;
#X connect 10 0 7 1;
#X connect 11 0 6 0;
#X connect 14 0 19 0;
#X connect 15 0 0 1;
#X connect 15 0 5 0;
#X connect 15 0 18 0;
#X connect 15 0 10 0;
#X connect 15 0 17 0;
#X connect 15 0 7 1;
#X connect 15 0 12 0;
#X connect 15 0 21 0;
#X connect 15 0 22 0;
#X connect 15 0 25 0;
#X connect 17 0 9 0;
#X connect 18 0 3 0;
#X connect 19 0 7 0;
#X connect 19 0 13 0;
#X connect 20 0 0 0;
#X connect 21 0 24 0;
#X connect 21 1 6 0;
#X connect 22 0 23 0;
#X connect 23 0 14 0;
#X connect 24 0 1 0;
#X connect 25 0 26 0;
#X connect 26 0 1 0;
#X restore 149 49 pd e.sleep;
#X obj 68 111 tgl 15 0 empty empty empty 17 7 0 10 -262144 -1 -1 1
1;
#X obj 68 79 &&;
#X obj 68 135 outlet;
#X connect 0 0 3 0;
#X connect 0 1 3 0;
#X connect 1 0 3 1;
#X connect 2 0 4 0;
#X connect 3 0 2 0;
#X restore 185 36 pd sleep;
#X obj 185 64 tgl 15 0 empty empty empty 17 7 0 10 -262144 -1 -1 1
1;
#N canvas 486 134 302 218 work 0;
#X obj 45 125 outlet;
#N canvas 0 22 675 514 c.work 0;
#N canvas 780 252 450 300 week 0;
#X obj 278 36 r day;
#X obj 278 64 select 0 1 2 3 4 5 6;
#X obj 49 136 r c.time;
#X obj 49 209 &&;
#X obj 15 153 bng 15 250 50 0 empty empty empty 17 7 0 10 -262144 -1
-1;
#X obj 102 177 <= 16;
#X obj 49 243 &&;
#X obj 49 267 tgl 15 0 empty empty empty 17 7 0 10 -262144 -1 -1 0
1;
#X obj 49 316 tgl 15 0 empty empty empty 17 7 0 10 -262144 -1 -1 0
1;
#X obj 49 291 != 0;
#X text 599 202 Free or not?;
#X obj 279 140 r c.time;
#X obj 279 213 &&;
#X obj 279 182 >= 10;
#X obj 247 157 bng 15 250 50 0 empty empty empty 17 7 0 10 -262144
-1 -1;
#X obj 279 247 &&;
#X obj 279 271 tgl 15 0 empty empty empty 17 7 0 10 -262144 -1 -1 0
1;
#X obj 279 320 tgl 15 0 empty empty empty 17 7 0 10 -262144 -1 -1 0
1;
#X obj 279 295 != 0;
#X obj 49 178 >= 12;
#X obj 332 182 <= 12;
#X obj 563 204 tgl 15 0 empty empty empty 17 7 0 10 -262144 -1 -1 0
1;
#X floatatom 356 229 5 0 0 0 - - -, f 5;
#X floatatom 357 264 5 0 0 0 - - -, f 5;
#X floatatom 131 223 5 0 0 0 - - -, f 5;
#X floatatom 131 259 5 0 0 0 - - -, f 5;
#X connect 0 0 1 0;
#X connect 1 1 15 1;
#X connect 1 3 6 1;
#X connect 1 4 15 1;
#X connect 2 0 4 0;
#X connect 2 0 19 0;
#X connect 2 0 5 0;
#X connect 3 0 6 0;
#X connect 3 0 24 0;
#X connect 4 0 5 0;
#X connect 4 0 3 0;
#X connect 4 0 9 0;
#X connect 4 0 19 0;
#X connect 4 0 6 0;
#X connect 5 0 3 1;
#X connect 6 0 7 0;
#X connect 6 0 25 0;
#X connect 7 0 9 0;
#X connect 9 0 8 0;
#X connect 11 0 13 0;
#X connect 11 0 14 0;
#X connect 11 0 20 0;
#X connect 12 0 15 0;
#X connect 12 0 22 0;
#X connect 13 0 12 0;
#X connect 14 0 13 0;
#X connect 14 0 12 0;
#X connect 14 0 18 0;
#X connect 14 0 20 0;
#X connect 14 0 15 0;
#X connect 15 0 16 0;
#X connect 15 0 23 0;
#X connect 16 0 18 0;
#X connect 18 0 17 0;
#X connect 19 0 3 0;
#X connect 20 0 12 1;
#X restore 103 278 pd week;
#X obj 107 71 r c.time;
#X obj 107 138 &&;
#X obj 107 196 tgl 15 0 empty empty empty 17 7 0 10 -262144 -1 -1 1
1;
#X obj 107 168 != 1;
#X obj 107 224 outlet;
#X obj 252 110 outlet;
#X obj 252 88 bng 15 250 50 0 empty empty empty 17 7 0 10 -262144 -1
-1;
#X floatatom 196 57 5 0 0 0 - - -, f 5;
#X obj 161 103 < 16;
#X obj 107 103 >= 10;
#X connect 1 0 7 0;
#X connect 1 0 8 0;
#X connect 1 0 9 0;
#X connect 1 0 10 0;
#X connect 2 0 4 0;
#X connect 3 0 5 0;
#X connect 4 0 3 0;
#X connect 7 0 6 0;
#X connect 9 0 2 1;
#X connect 10 0 2 0;
#X restore 45 37 pd c.work;
#N canvas 1138 109 503 444 e.work 0;
#X obj 107 138 &&;
#X obj 107 196 tgl 15 0 empty empty empty 17 7 0 10 -262144 -1 -1 1
1;
#X obj 107 168 != 1;
#X obj 107 224 outlet;
#X obj 252 110 outlet;
#X obj 252 88 bng 15 250 50 0 empty empty empty 17 7 0 10 -262144 -1
-1;
#X floatatom 196 57 5 0 0 0 - - -, f 5;
#X obj 161 103 < 16;
#X obj 107 103 >= 10;
#X obj 107 71 r e.time;
#X connect 0 0 2 0;
#X connect 1 0 3 0;
#X connect 2 0 1 0;
#X connect 5 0 4 0;
#X connect 7 0 0 1;
#X connect 8 0 0 0;
#X connect 9 0 5 0;
#X connect 9 0 6 0;
#X connect 9 0 7 0;
#X connect 9 0 8 0;
#X restore 122 37 pd e.work;
#X obj 45 95 &&;
#X connect 1 0 3 0;
#X connect 1 1 3 0;
#X connect 2 0 3 1;
#X connect 3 0 0 0;
#X restore 259 36 pd work;
#X obj 259 64 tgl 15 0 empty empty empty 17 7 0 10 -262144 -1 -1 1
1;
#X obj 213 105 &&;
#X obj 213 138 tgl 15 0 empty empty empty 17 7 0 10 -262144 -1 -1 1
1;
#X obj 213 168 outlet;
#X obj 368 64 s time;
#X obj 368 37 bng 15 250 50 0 empty empty empty 17 7 0 10 -262144 -1
-1;
#X obj 373 180 s no;
#X obj 92 154 s yes;
#X obj 373 153 != 1;
#X connect 1 0 2 0;
#X connect 2 0 5 0;
#X connect 3 0 4 0;
#X connect 4 0 5 1;
#X connect 5 0 6 0;
#X connect 6 0 7 0;
#X connect 6 0 11 0;
#X connect 6 0 12 0;
#X connect 9 0 8 0;
#X connect 12 0 10 0;
#X restore 778 792 pd settings;
#X text 564 383 h;
#X text 1145 378 h;
#X text 1078 329 Time in Oslo;
#X text 500 335 Time in Troy;
#X text 702 239 Hey \, is now a good time to talk?;
#N canvas 0 22 450 278 (subpatch) 0;
#X coords 0 1 100 -1 200 140 1;
#X restore 448 302 graph;
#N canvas 0 22 450 278 (subpatch) 0;
#X coords 0 1 100 -1 200 140 1 0 0;
#X restore 1022 299 graph;
#X floatatom 804 526 5 0 0 0 - day -, f 5;
#X text 790 501 Days Left;
#X obj 711 314 tgl 100 0 empty yes empty 17 7 0 10 -204786 -1 -1 1
1;
#X text 39 33 Do not hit toggles \, no interaction needed;
